# xmcd
#
# Track frame offsets: 
#        150
#        11415
#        29197
#        43302
#        59499
#        72797
#        85689
#        101515
#        121702
#        138487
#        155544
#        171077
#        180423
#
# Disc length: 2715 seconds
#
# Revision: 0
# Processed by: cddbd v1.5.2PL0 Copyright (c) Steve Scherf et al.
# Submitted via: ExactAudioCopy v0.99pb4
#
DISCID=aa0a990d
DTITLE=Mavis Staples - You Are Not Alone
DYEAR=2010
DGENRE=Blues
TTITLE0=Don't Knock
TTITLE1=You Are Not Alone
TTITLE2=Downward Road
TTITLE3=In Christ There Is Not East Or West
TTITLE4=Creeep Along Moses
TTITLE5=Losing You
TTITLE6=I Belong To The Band
TTITLE7=Last Train
TTITLE8=Only The Lord Knows
TTITLE9=Wrote A Song For Everyone
TTITLE10=We're Gonna Make It
TTITLE11=Wonderful Savior
TTITLE12=Too Close/On My Way To Heaven
EXTD=
EXTT0=
EXTT1=
EXTT2=
EXTT3=
EXTT4=
EXTT5=
EXTT6=
EXTT7=
EXTT8=
EXTT9=
EXTT10=
EXTT11=
EXTT12=
PLAYORDER=
